<svg xmlns="http://www.w3.org/2000/svg" xmlns:xlink="http://www.w3.org/1999/xlink" id="egI9e4XDyQ31" viewBox="0 0 1200 900" shape-rendering="geometricPrecision" text-rendering="geometricPrecision" project-id="966217fa8cf04c8fa97cfd8d37236833" export-id="7eb360f3c5bc43c8b1238ec153b22c22" cached="false" style="background-color:transparent">
<style><![CDATA[
#egI9e4XDyQ33_to {animation: egI9e4XDyQ33_to__to 5000ms linear infinite normal forwards}@keyframes egI9e4XDyQ33_to__to { 0% {offset-distance: 0%} 62% {offset-distance: 0%;animation-timing-function: cubic-bezier(0.94,0,0.667,1)} 80% {offset-distance: 100%} 100% {offset-distance: 100%}} #egI9e4XDyQ33 {animation: egI9e4XDyQ33_c_o 5000ms linear infinite normal forwards}@keyframes egI9e4XDyQ33_c_o { 0% {opacity: 0} 31.8% {opacity: 0;animation-timing-function: step-end} 32% {opacity: 1;animation-timing-function: step-end} 100% {opacity: 0.037645}} #egI9e4XDyQ315 {animation: egI9e4XDyQ315_c_o 5000ms linear infinite normal forwards}@keyframes egI9e4XDyQ315_c_o { 0% {opacity: 0} 31.8% {opacity: 0;animation-timing-function: step-end} 32% {opacity: 1;animation-timing-function: step-end} 100% {opacity: 0.66}} #egI9e4XDyQ318_to {animation: egI9e4XDyQ318_to__to 5000ms linear infinite normal forwards}@keyframes egI9e4XDyQ318_to__to { 0% {offset-distance: 0%} 23.34% {offset-distance: 0%;animation-timing-function: cubic-bezier(0.94,0,0.667,1)} 38% {offset-distance: 100%} 100% {offset-distance: 100%}} #egI9e4XDyQ3121_to {animation: egI9e4XDyQ3121_to__to 5000ms linear infinite normal forwards}@keyframes egI9e4XDyQ3121_to__to { 0% {offset-distance: 0%;animation-timing-function: cubic-bezier(0.333,0,0.667,1)} 15.34% {offset-distance: 51.422652%;animation-timing-function: cubic-bezier(0.333,0,0.667,1)} 23.34% {offset-distance: 53.30903%} 36% {offset-distance: 53.30903%;animation-timing-function: cubic-bezier(0.333,0,0.667,1)} 54.66% {offset-distance: 100%} 100% {offset-distance: 100%}} #egI9e4XDyQ3121_tr {animation: egI9e4XDyQ3121_tr__tr 5000ms linear infinite normal forwards}@keyframes egI9e4XDyQ3121_tr__tr { 0% {transform: rotate(35deg);animation-timing-function: cubic-bezier(0.333,0,0.667,1)} 15.34% {transform: rotate(25deg);animation-timing-function: cubic-bezier(0.333,0,0.667,1)} 23.34% {transform: rotate(-5deg)} 100% {transform: rotate(-5deg)}} #egI9e4XDyQ3137_to {animation: egI9e4XDyQ3137_to__to 5000ms linear infinite normal forwards}@keyframes egI9e4XDyQ3137_to__to { 0% {offset-distance: 0%;animation-timing-function: cubic-bezier(0.333,0,0.667,1)} 15.34% {offset-distance: 51.422652%;animation-timing-function: cubic-bezier(0.333,0,0.667,1)} 23.34% {offset-distance: 53.30903%} 36% {offset-distance: 53.30903%;animation-timing-function: cubic-bezier(0.333,0,0.667,1)} 54.66% {offset-distance: 100%} 100% {offset-distance: 100%}} #egI9e4XDyQ3137_tr {animation: egI9e4XDyQ3137_tr__tr 5000ms linear infinite normal forwards}@keyframes egI9e4XDyQ3137_tr__tr { 0% {transform: rotate(35deg);animation-timing-function: cubic-bezier(0.333,0,0.667,1)} 15.34% {transform: rotate(25deg);animation-timing-function: cubic-bezier(0.333,0,0.667,1)} 23.34% {transform: rotate(-5deg)} 100% {transform: rotate(-5deg)}} #egI9e4XDyQ3138_to {animation: egI9e4XDyQ3138_to__to 5000ms linear infinite normal forwards}@keyframes egI9e4XDyQ3138_to__to { 0% {offset-distance: 0%} 23.34% {offset-distance: 0%;animation-timing-function: cubic-bezier(0.94,0,0.667,1)} 38% {offset-distance: 100%} 100% {offset-distance: 100%}} #egI9e4XDyQ3138 {animation: egI9e4XDyQ3138_c_o 5000ms linear infinite normal forwards}@keyframes egI9e4XDyQ3138_c_o { 0% {opacity: 1;animation-timing-function: step-end} 34% {opacity: 0} 100% {opacity: 0}} #egI9e4XDyQ3151_to {animation: egI9e4XDyQ3151_to__to 5000ms linear infinite normal forwards}@keyframes egI9e4XDyQ3151_to__to { 0% {offset-distance: 0%;animation-timing-function: cubic-bezier(0.333,0,0.667,1)} 15.34% {offset-distance: 51.422652%;animation-timing-function: cubic-bezier(0.333,0,0.667,1)} 23.34% {offset-distance: 53.30903%} 36% {offset-distance: 53.30903%;animation-timing-function: cubic-bezier(0.333,0,0.667,1)} 54.66% {offset-distance: 100%} 100% {offset-distance: 100%}} #egI9e4XDyQ3151_tr {animation: egI9e4XDyQ3151_tr__tr 5000ms linear infinite normal forwards}@keyframes egI9e4XDyQ3151_tr__tr { 0% {transform: rotate(35deg);animation-timing-function: cubic-bezier(0.333,0,0.667,1)} 15.34% {transform: rotate(25deg);animation-timing-function: cubic-bezier(0.333,0,0.667,1)} 23.34% {transform: rotate(-5deg)} 100% {transform: rotate(-5deg)}} #egI9e4XDyQ3160_to {animation: egI9e4XDyQ3160_to__to 5000ms linear infinite normal forwards}@keyframes egI9e4XDyQ3160_to__to { 0% {offset-distance: 0%} 32% {offset-distance: 0%;animation-timing-function: cubic-bezier(0.473,0,0.667,1)} 50% {offset-distance: 45.806694%;animation-timing-function: cubic-bezier(0.333,0,0.667,1)} 55.34% {offset-distance: 45.806694%;animation-timing-function: cubic-bezier(0.957,0.021,0.667,1)} 62% {offset-distance: 47.700704%;animation-timing-function: cubic-bezier(0.333,0,0.667,1)} 70% {offset-distance: 47.700704%;animation-timing-function: cubic-bezier(0.333,0,0.507,1)} 83.34% {offset-distance: 100%} 100% {offset-distance: 100%}} #egI9e4XDyQ3160_tr {animation: egI9e4XDyQ3160_tr__tr 5000ms linear infinite normal forwards}@keyframes egI9e4XDyQ3160_tr__tr { 0% {transform: rotate(30deg)} 32% {transform: rotate(30deg);animation-timing-function: cubic-bezier(0.473,0.019,0.667,1)} 50% {transform: rotate(-15deg);animation-timing-function: cubic-bezier(0.333,0,0.667,1)} 55.34% {transform: rotate(-15deg);animation-timing-function: cubic-bezier(0.957,0.064,0.667,1)} 62% {transform: rotate(-5deg)} 100% {transform: rotate(-5deg)}} #egI9e4XDyQ3161 {animation: egI9e4XDyQ3161_c_o 5000ms linear infinite normal forwards}@keyframes egI9e4XDyQ3161_c_o { 0% {opacity: 0} 31.8% {opacity: 0;animation-timing-function: step-end} 32% {opacity: 1;animation-timing-function: step-end} 100% {opacity: 0.66}} #egI9e4XDyQ3176_to {animation: egI9e4XDyQ3176_to__to 5000ms linear infinite normal forwards}@keyframes egI9e4XDyQ3176_to__to { 0% {offset-distance: 0%} 32% {offset-distance: 0%;animation-timing-function: cubic-bezier(0.473,0,0.667,1)} 50% {offset-distance: 45.806694%;animation-timing-function: cubic-bezier(0.333,0,0.667,1)} 55.34% {offset-distance: 45.806694%;animation-timing-function: cubic-bezier(0.957,0.021,0.667,1)} 62% {offset-distance: 47.700704%;animation-timing-function: cubic-bezier(0.333,0,0.667,1)} 70% {offset-distance: 47.700704%;animation-timing-function: cubic-bezier(0.333,0,0.507,1)} 83.34% {offset-distance: 100%} 100% {offset-distance: 100%}} #egI9e4XDyQ3176_tr {animation: egI9e4XDyQ3176_tr__tr 5000ms linear infinite normal forwards}@keyframes egI9e4XDyQ3176_tr__tr { 0% {transform: rotate(30deg)} 32% {transform: rotate(30deg);animation-timing-function: cubic-bezier(0.473,0.019,0.667,1)} 50% {transform: rotate(-15deg);animation-timing-function: cubic-bezier(0.333,0,0.667,1)} 55.34% {transform: rotate(-15deg);animation-timing-function: cubic-bezier(0.957,0.064,0.667,1)} 62% {transform: rotate(-5deg)} 100% {transform: rotate(-5deg)}} #egI9e4XDyQ3177_to {animation: egI9e4XDyQ3177_to__to 5000ms linear infinite normal forwards}@keyframes egI9e4XDyQ3177_to__to { 0% {offset-distance: 0%} 62% {offset-distance: 0%;animation-timing-function: cubic-bezier(0.167,0.167,0.667,1)} 80% {offset-distance: 100%} 100% {offset-distance: 100%}} #egI9e4XDyQ3177 {animation: egI9e4XDyQ3177_c_o 5000ms linear infinite normal forwards}@keyframes egI9e4XDyQ3177_c_o { 0% {opacity: 0} 31.8% {opacity: 0;animation-timing-function: step-end} 32% {opacity: 1;animation-timing-function: step-end} 67.34% {opacity: 0} 100% {opacity: 0}} #egI9e4XDyQ3190_to {animation: egI9e4XDyQ3190_to__to 5000ms linear infinite normal forwards}@keyframes egI9e4XDyQ3190_to__to { 0% {offset-distance: 0%} 32% {offset-distance: 0%;animation-timing-function: cubic-bezier(0.473,0,0.667,1)} 50% {offset-distance: 45.806694%;animation-timing-function: cubic-bezier(0.333,0,0.667,1)} 55.34% {offset-distance: 45.806694%;animation-timing-function: cubic-bezier(0.957,0.021,0.667,1)} 62% {offset-distance: 47.700704%;animation-timing-function: cubic-bezier(0.333,0,0.667,1)} 70% {offset-distance: 47.700704%;animation-timing-function: cubic-bezier(0.333,0,0.507,1)} 83.34% {offset-distance: 100%} 100% {offset-distance: 100%}} #egI9e4XDyQ3190_tr {animation: egI9e4XDyQ3190_tr__tr 5000ms linear infinite normal forwards}@keyframes egI9e4XDyQ3190_tr__tr { 0% {transform: rotate(30deg)} 32% {transform: rotate(30deg);animation-timing-function: cubic-bezier(0.473,0.019,0.667,1)} 50% {transform: rotate(-15deg);animation-timing-function: cubic-bezier(0.333,0,0.667,1)} 55.34% {transform: rotate(-15deg);animation-timing-function: cubic-bezier(0.957,0.064,0.667,1)} 62% {transform: rotate(-5deg)} 100% {transform: rotate(-5deg)}} #egI9e4XDyQ3190 {animation: egI9e4XDyQ3190_c_o 5000ms linear infinite normal forwards}@keyframes egI9e4XDyQ3190_c_o { 0% {opacity: 0} 31.8% {opacity: 0;animation-timing-function: step-end} 32% {opacity: 1;animation-timing-function: step-end} 100% {opacity: 0.66}} #egI9e4XDyQ3205_tr {animation: egI9e4XDyQ3205_tr__tr 5000ms linear infinite normal forwards}@keyframes egI9e4XDyQ3205_tr__tr { 0% {transform: translate(135.33781px,207.03926px) rotate(720deg);animation-timing-function: cubic-bezier(0.415,0.08,0.115,0.955)} 100% {transform: translate(135.33781px,207.03926px) rotate(252.467532deg)}} #egI9e4XDyQ3206_tr {animation: egI9e4XDyQ3206_tr__tr 5000ms linear infinite normal forwards}@keyframes egI9e4XDyQ3206_tr__tr { 0% {transform: translate(11.12px,29.9px) rotate(-720deg);animation-timing-function: cubic-bezier(0.415,0.08,0.115,0.955)} 100% {transform: translate(11.12px,29.9px) rotate(-252.467532deg)}}
]]></style>
<defs><linearGradient id="egI9e4XDyQ3199-fill" x1="0.5" y1="0" x2="0.5" y2="1" spreadMethod="pad" gradientUnits="objectBoundingBox" gradientTransform="translate(0 0)"><stop id="egI9e4XDyQ3199-fill-0" offset="0%" stop-color="rgba(255,255,255,0)"/><stop id="egI9e4XDyQ3199-fill-1" offset="100%" stop-color="#010022"/></linearGradient></defs><g mask="url(#egI9e4XDyQ314)"><g id="egI9e4XDyQ33_to" style="offset-path:path('M587.638,253.183C580.388,303.433,551.388,504.433,544.138,554.683');offset-rotate:0deg"><g id="egI9e4XDyQ33" transform="translate(-572.138,-227.683)" opacity="0"><g transform="translate(572.138 227.683)"><path d="M29.186,-51.11C57.411,-34.993,67.227,0.958,51.108,29.184C34.99,57.411,-0.957,67.227,-29.183,51.108c-28.227-16.118-38.043-52.069-21.926-80.294c16.12-28.225,52.067-38.041,80.295-21.924Z" fill="#f4e57d" stroke-width="0"/></g><g transform="translate(572.138 227.682)"><path d="M24.147,-42.285C47.501,-28.95,55.621,0.793,42.286,24.147c-13.337,23.354-43.078,31.475-66.432,18.14-23.354-13.337-31.475-43.08-18.138-66.434c13.335-23.354,43.077-31.475,66.431-18.138Z" fill="#eab934" stroke-width="0"/></g><g transform="translate(570.802 230.025)"><path d="M42.222,24.108c-13.93,21.57-42.464,28.724-65.031,15.836-22.569-12.886-30.909-41.093-19.41-64.055c13.928-21.57,42.461-28.72,65.028-15.834C45.378,-27.06,53.719,1.151,42.222,24.108Z" fill="#f0d137" stroke-width="0"/></g><g transform="translate(570.336 230.304)"><path d="M10.933,14.261c-1.478,2.589-3.686,4.297-6.618,5.125-2.933.825-6.316.499-10.142-.983c0,0-2.968,5.195-2.968,5.195s-5.615-3.207-5.615-3.207s2.86-5.008,2.86-5.008c-2.251-1.491-4.239-3.154-5.964-4.988-1.724-1.833-3.008-3.608-3.845-5.327c0,0,6.942-5.098,6.942-5.098.914,1.804,2.169,3.556,3.766,5.253c1.594,1.697,3.33,3.081,5.2,4.148c3.558,2.032,5.843,2.16,6.858.379.536-.935.424-1.916-.331-2.949s-2.114-2.438-4.075-4.219c-2.163-1.939-3.896-3.683-5.203-5.237-1.304-1.553-2.169-3.339-2.586-5.357-.42-2.016.021-4.167,1.321-6.443c1.532-2.682,3.813-4.431,6.842-5.245c3.031-.814,6.495-.397,10.392,1.25c0,0,2.94-5.148,2.94-5.148s5.617,3.209,5.617,3.209-2.885,5.052-2.885,5.052c1.688,1.172,3.218,2.46,4.589,3.863c1.369,1.403,2.48,2.844,3.331,4.322c0,0-6.782,5.25-6.782,5.25-2.157-3.467-4.702-6.037-7.635-7.711-1.841-1.051-3.337-1.546-4.491-1.48s-1.979.534-2.481,1.409c-.497.874-.372,1.814.376,2.819.751,1.008,2.096,2.377,4.046,4.11C6.584,-0.8,8.326,0.951,9.617,2.493c1.291,1.546,2.158,3.323,2.6,5.334.445,2.012.016,4.156-1.284,6.434Z" fill="#eab934" stroke-width="0"/></g><g transform="translate(571.674 227.962)"><path d="M10.933,14.261c-1.478,2.591-3.685,4.299-6.618,5.127-2.933.825-6.316.499-10.145-.985c0,0-2.965,5.195-2.965,5.195s-5.615-3.207-5.615-3.207s2.86-5.008,2.86-5.008c-2.251-1.489-4.239-3.154-5.966-4.985-1.722-1.834-3.006-3.611-3.843-5.33c0,0,6.942-5.098,6.942-5.098.914,1.807,2.169,3.558,3.766,5.255c1.594,1.697,3.33,3.081,5.2,4.149c3.558,2.032,5.843,2.157,6.858.378.536-.935.424-1.918-.331-2.951-.755-1.031-2.114-2.438-4.075-4.219-2.163-1.939-3.896-3.681-5.203-5.234-1.304-1.553-2.169-3.339-2.588-5.358-.418-2.016.02-4.166,1.323-6.445c1.532-2.682,3.813-4.429,6.842-5.245c3.031-.812,6.495-.395,10.395,1.25c0,0,2.937-5.148,2.937-5.148s5.617,3.209,5.617,3.209-2.887,5.052-2.887,5.052c1.69,1.172,3.22,2.46,4.591,3.863c1.369,1.403,2.48,2.844,3.331,4.324c0,0-6.781,5.248-6.781,5.248-2.158-3.464-4.703-6.035-7.636-7.711-1.841-1.051-3.337-1.544-4.491-1.478-1.154.064-1.982.534-2.481,1.407-.497.874-.372,1.814.376,2.819.751,1.008,2.098,2.379,4.046,4.11C6.584,-0.8,8.326,0.951,9.617,2.495s2.158,3.321,2.6,5.335c.445,2.011.016,4.155-1.284,6.431Z" fill="#f4e57d" stroke-width="0"/></g></g></g><mask id="egI9e4XDyQ314" mask-type="alpha" x="-150%" y="-150%" height="400%" width="400%"><g id="egI9e4XDyQ315" transform="matrix(1.51661 0 0 3.84344 602.591 480.764948)" opacity="0"><rect width="205.182" height="99.527" rx="0" ry="0" transform="translate(-102.591-49.7635)" fill="#ff3095" stroke="#afafaf" stroke-width="0"/></g></mask></g><g mask="url(#egI9e4XDyQ329)"><g id="egI9e4XDyQ318_to" style="offset-path:path('M624.138,254.683C630.138,314.35,654.138,553.016,660.138,612.683');offset-rotate:0deg"><g transform="translate(-572.138,-227.683)"><g transform="translate(572.138 227.683)"><path d="M29.186,-51.11C57.411,-34.993,67.227,0.958,51.108,29.184C34.99,57.411,-0.957,67.227,-29.183,51.108c-28.227-16.118-38.043-52.069-21.926-80.294c16.12-28.225,52.067-38.041,80.295-21.924Z" fill="#f4e57d" stroke-width="0"/></g><g transform="translate(572.138 227.682)"><path d="M24.147,-42.285C47.501,-28.95,55.621,0.793,42.286,24.147c-13.337,23.354-43.078,31.475-66.432,18.14-23.354-13.337-31.475-43.08-18.138-66.434c13.335-23.354,43.077-31.475,66.431-18.138Z" fill="#eab934" stroke-width="0"/></g><g transform="translate(570.802 230.025)"><path d="M42.222,24.108c-13.93,21.57-42.464,28.724-65.031,15.836-22.569-12.886-30.909-41.093-19.41-64.055c13.928-21.57,42.461-28.72,65.028-15.834C45.378,-27.06,53.719,1.151,42.222,24.108Z" fill="#f0d137" stroke-width="0"/></g><g transform="translate(570.336 230.304)"><path d="M10.933,14.261c-1.478,2.589-3.686,4.297-6.618,5.125-2.933.825-6.316.499-10.142-.983c0,0-2.968,5.195-2.968,5.195s-5.615-3.207-5.615-3.207s2.86-5.008,2.86-5.008c-2.251-1.491-4.239-3.154-5.964-4.988-1.724-1.833-3.008-3.608-3.845-5.327c0,0,6.942-5.098,6.942-5.098.914,1.804,2.169,3.556,3.766,5.253c1.594,1.697,3.33,3.081,5.2,4.148c3.558,2.032,5.843,2.16,6.858.379.536-.935.424-1.916-.331-2.949s-2.114-2.438-4.075-4.219c-2.163-1.939-3.896-3.683-5.203-5.237-1.304-1.553-2.169-3.339-2.586-5.357-.42-2.016.021-4.167,1.321-6.443c1.532-2.682,3.813-4.431,6.842-5.245c3.031-.814,6.495-.397,10.392,1.25c0,0,2.94-5.148,2.94-5.148s5.617,3.209,5.617,3.209-2.885,5.052-2.885,5.052c1.688,1.172,3.218,2.46,4.589,3.863c1.369,1.403,2.48,2.844,3.331,4.322c0,0-6.782,5.25-6.782,5.25-2.157-3.467-4.702-6.037-7.635-7.711-1.841-1.051-3.337-1.546-4.491-1.48s-1.979.534-2.481,1.409c-.497.874-.372,1.814.376,2.819.751,1.008,2.096,2.377,4.046,4.11C6.584,-0.8,8.326,0.951,9.617,2.493c1.291,1.546,2.158,3.323,2.6,5.334.445,2.012.016,4.156-1.284,6.434Z" fill="#eab934" stroke-width="0"/></g><g transform="translate(571.674 227.962)"><path d="M10.933,14.261c-1.478,2.591-3.685,4.299-6.618,5.127-2.933.825-6.316.499-10.145-.985c0,0-2.965,5.195-2.965,5.195s-5.615-3.207-5.615-3.207s2.86-5.008,2.86-5.008c-2.251-1.489-4.239-3.154-5.966-4.985-1.722-1.834-3.006-3.611-3.843-5.33c0,0,6.942-5.098,6.942-5.098.914,1.807,2.169,3.558,3.766,5.255c1.594,1.697,3.33,3.081,5.2,4.149c3.558,2.032,5.843,2.157,6.858.378.536-.935.424-1.918-.331-2.951-.755-1.031-2.114-2.438-4.075-4.219-2.163-1.939-3.896-3.681-5.203-5.234-1.304-1.553-2.169-3.339-2.588-5.358-.418-2.016.02-4.166,1.323-6.445c1.532-2.682,3.813-4.429,6.842-5.245c3.031-.812,6.495-.395,10.395,1.25c0,0,2.937-5.148,2.937-5.148s5.617,3.209,5.617,3.209-2.887,5.052-2.887,5.052c1.69,1.172,3.22,2.46,4.591,3.863c1.369,1.403,2.48,2.844,3.331,4.324c0,0-6.781,5.248-6.781,5.248-2.158-3.464-4.703-6.035-7.636-7.711-1.841-1.051-3.337-1.544-4.491-1.478-1.154.064-1.982.534-2.481,1.407-.497.874-.372,1.814.376,2.819.751,1.008,2.098,2.379,4.046,4.11C6.584,-0.8,8.326,0.951,9.617,2.495s2.158,3.321,2.6,5.335c.445,2.011.016,4.155-1.284,6.431Z" fill="#f4e57d" stroke-width="0"/></g></g></g><mask id="egI9e4XDyQ329" mask-type="alpha" x="-150%" y="-150%" height="400%" width="400%"><g transform="matrix(1.51661 0 0 3.84344 602.591 480.764946)"><rect width="205.182" height="99.527" rx="0" ry="0" transform="translate(-102.591-49.7635)" fill="#ff3095" stroke="#afafaf" stroke-width="0"/></g></mask></g><g transform="matrix(1.19899 0 0 1.19899-40.336362-108.875344)"><g transform="translate(534.878 774.097)"><path d="M0.001,38.846c89.64,0,162.751-17.452,162.751-38.848s-73.111-38.844-162.751-38.844c-89.642,0-162.753,17.448-162.753,38.844s73.111,38.848,162.753,38.848Z" fill="#e5e5e5" stroke-width="0"/></g><g transform="translate(533.469 725.825)"><path d="M-20.513,-42.645c23.551-11.329,51.827-1.419,63.157,22.131c11.329,23.553,1.42,51.829-22.131,63.158-23.552,11.329-51.829,1.419-63.157-22.132-11.329-23.55-1.421-51.828,22.131-63.157Z" fill="#f4e57d" stroke-width="0"/></g><g transform="translate(534.409 727.778)"><path d="M35.227,-16.945c7.922,19.063-.365,41.217-19.195,50.274-18.831,9.056-41.311,1.707-51.261-16.385-7.921-19.063.365-41.214,19.196-50.272c18.829-9.057,41.31-1.705,51.26,16.383Z" fill="#f0d137" stroke-width="0"/></g><g transform="translate(533.469 725.827)"><path d="M-16.972,-35.284c19.485-9.372,42.882-1.175,52.256,18.31C44.656,2.513,36.457,25.908,16.972,35.28c-19.487,9.376-42.882,1.177-52.254-18.31-9.374-19.485-1.175-42.882,18.31-52.254Z" fill="#eab934" stroke-width="0"/></g><g transform="translate(534.637 727.582)"><path d="M14.174,-0.096c1.038,2.162,1.163,4.401.372,6.721-.792,2.319-2.55,4.408-5.281,6.265c0,0,2.085,4.334,2.085,4.334s-4.685,2.255-4.685,2.255-2.008-4.179-2.008-4.179c-2.015.809-4.023,1.368-6.026,1.672-1.999.305-3.761.341-5.281.112c0,0-.203-6.92-.203-6.92c1.61.218,3.342.185,5.195-.096c1.85-.28,3.559-.799,5.119-1.549c2.967-1.427,4.095-2.883,3.38-4.368-.374-.779-1.076-1.155-2.103-1.126-1.029.029-2.58.286-4.654.772-2.269.546-4.216.897-5.841,1.053-1.623.157-3.198-.088-4.725-.73-1.528-.644-2.749-1.917-3.662-3.814-1.079-2.241-1.194-4.548-.351-6.926.844-2.377,2.702-4.48,5.571-6.308c0,0-2.066-4.297-2.066-4.297s4.687-2.254,4.687-2.254s2.028,4.216,2.028,4.216c1.546-.581,3.095-1.007,4.65-1.274c1.555-.266,3.017-.343,4.383-.233c0,0,.379,6.886.379,6.886-3.278-.155-6.141.357-8.589,1.534-1.535.739-2.545,1.504-3.029,2.3-.482.794-.548,1.555-.198,2.283.35.73,1.029,1.074,2.037,1.038c1.009-.035,2.531-.303,4.566-.802c2.296-.559,4.249-.913,5.861-1.063c1.61-.151,3.181.088,4.716.711c1.535.624,2.758,1.887,3.673,3.787Z" fill="#eab934" stroke-width="0"/></g><g transform="translate(533.697 725.628)"><path d="M14.175,-0.095c1.038,2.16,1.163,4.399.372,6.721-.792,2.319-2.551,4.408-5.281,6.265c0,0,2.085,4.334,2.085,4.334s-4.685,2.253-4.685,2.253-2.008-4.177-2.008-4.177c-2.015.809-4.023,1.366-6.026,1.672-1.999.305-3.761.341-5.281.112c0,0-.203-6.92-.203-6.92c1.611.218,3.342.185,5.195-.096C0.193,9.789,1.9,9.27,3.462,8.52C6.429,7.093,7.557,5.637,6.844,4.152c-.376-.779-1.079-1.155-2.105-1.126-1.029.029-2.58.286-4.654.772-2.269.546-4.216.897-5.839,1.053-1.625.155-3.2-.088-4.727-.73-1.528-.644-2.749-1.917-3.662-3.816-1.077-2.239-1.194-4.546-.351-6.924.844-2.377,2.701-4.48,5.571-6.308c0,0-2.066-4.297-2.066-4.297s4.687-2.254,4.687-2.254s2.028,4.216,2.028,4.216c1.546-.581,3.095-1.007,4.65-1.274c1.555-.266,3.017-.345,4.385-.233c0,0,.377,6.886.377,6.886-3.278-.155-6.141.357-8.587,1.534-1.537.738-2.547,1.504-3.031,2.298-.482.794-.548,1.557-.198,2.285s1.028,1.074,2.037,1.038c1.009-.037,2.531-.305,4.566-.802c2.296-.561,4.249-.913,5.861-1.063c1.61-.151,3.181.088,4.716.711c1.535.624,2.758,1.887,3.673,3.787Z" fill="#f4e57d" stroke-width="0"/></g><g transform="translate(615.177 667.644)"><path d="M23.464,-41.094C46.16,-28.135,54.053,0.77,41.092,23.464C28.133,46.16,-0.771,54.053,-23.467,41.092c-22.696-12.959-30.586-41.864-17.627-64.558c12.959-22.696,41.864-30.587,64.558-17.628Z" fill="#f4e57d" stroke-width="0"/></g><g transform="translate(615.176 667.643)"><path d="M19.415,-34C38.192,-23.276,44.722,0.637,34.001,19.415C23.277,38.192,-0.637,44.722,-19.414,34C-38.192,23.277,-44.722,-0.637,-34,-19.415C-23.276,-38.192,0.638,-44.722,19.415,-34Z" fill="#eab934" stroke-width="0"/></g><g transform="translate(614.102 669.527)"><path d="M33.946,19.384c-11.199,17.343-34.14,23.094-52.287,12.732-18.145-10.361-24.851-33.042-15.605-51.503c11.199-17.343,34.14-23.092,52.285-12.731c18.145,10.36,24.853,33.042,15.607,51.502Z" fill="#f0d137" stroke-width="0"/></g><g transform="translate(613.727 669.752)"><path d="M8.79,11.466c-1.188,2.081-2.961,3.455-5.321,4.12-2.359.664-5.078.403-8.157-.789c0,0-2.382,4.177-2.382,4.177s-4.516-2.578-4.516-2.578s2.299-4.028,2.299-4.028c-1.812-1.199-3.409-2.535-4.797-4.009-1.384-1.474-2.417-2.902-3.09-4.285c0,0,5.582-4.097,5.582-4.097.735,1.45,1.744,2.858,3.028,4.222c1.281,1.364,2.677,2.477,4.18,3.335c2.861,1.634,4.699,1.737,5.515.305.43-.752.342-1.541-.266-2.37-.607-.831-1.7-1.96-3.275-3.393-1.741-1.558-3.134-2.962-4.185-4.211-1.049-1.249-1.744-2.684-2.079-4.307-.338-1.621.014-3.349,1.061-5.18c1.233-2.158,3.066-3.563,5.503-4.218c2.436-.655,5.221-.319,8.355,1.005c0,0,2.363-4.139,2.363-4.139s4.517,2.578,4.517,2.578-2.32,4.064-2.32,4.064c1.357.942,2.588,1.978,3.69,3.106s1.995,2.288,2.679,3.476c0,0-5.452,4.22-5.452,4.22-1.736-2.787-3.783-4.853-6.141-6.199-1.48-.845-2.683-1.243-3.612-1.19-.926.054-1.592.428-1.994,1.133-.399.702-.299,1.457.303,2.266.603.811,1.685,1.911,3.253,3.305c1.764,1.571,3.163,2.979,4.201,4.22c1.036,1.243,1.735,2.671,2.09,4.288.358,1.617.013,3.341-1.032,5.173Z" fill="#eab934" stroke-width="0"/></g><g transform="translate(614.804 667.868)"><path d="M8.79,11.466c-1.188,2.083-2.963,3.458-5.321,4.123-2.359.664-5.08.401-8.157-.793c0,0-2.384,4.177-2.384,4.177s-4.514-2.578-4.514-2.578s2.297-4.027,2.297-4.027c-1.81-1.197-3.409-2.536-4.795-4.008-1.386-1.475-2.417-2.903-3.09-4.286c0,0,5.582-4.098,5.582-4.098.734,1.45,1.744,2.86,3.026,4.225c1.283,1.364,2.677,2.477,4.182,3.335c2.859,1.634,4.698,1.735,5.515.305.43-.754.341-1.541-.266-2.372-.609-.829-1.702-1.961-3.277-3.394-1.739-1.558-3.132-2.959-4.183-4.208s-1.744-2.685-2.081-4.307c-.338-1.621.016-3.351,1.063-5.183c1.231-2.156,3.066-3.561,5.501-4.217c2.436-.653,5.221-.317,8.357,1.005c0,0,2.363-4.139,2.363-4.139s4.515,2.58,4.515,2.58-2.32,4.062-2.32,4.062c1.357.942,2.588,1.978,3.69,3.106s1.995,2.287,2.681,3.475c0,0-5.454,4.221-5.454,4.221-1.736-2.785-3.783-4.852-6.139-6.2-1.482-.845-2.685-1.241-3.612-1.188-.928.052-1.592.429-1.994,1.132-.4.702-.3,1.457.301,2.266.603.811,1.687,1.911,3.253,3.305C5.293,-0.644,6.692,0.764,7.73,2.006c1.038,1.241,1.735,2.67,2.092,4.289.358,1.617.013,3.341-1.032,5.171Z" fill="#f4e57d" stroke-width="0"/></g><g transform="translate(528.228 654.505)"><path d="M-20.513,-42.643c23.551-11.331,51.829-1.418,63.157,22.13C53.973,3.04,44.064,31.315,20.513,42.646c-23.552,11.327-51.829,1.419-63.157-22.133-11.329-23.551-1.421-51.827,22.131-63.156Z" fill="#f4e57d" stroke-width="0"/></g><g transform="translate(528.227 654.506)"><path d="M-16.971,-35.282c19.485-9.374,42.882-1.177,52.254,18.31c9.372,19.485,1.175,42.882-18.31,52.254-19.487,9.374-42.883,1.175-52.256-18.31-9.372-19.487-1.173-42.882,18.312-52.254Z" fill="#eab934" stroke-width="0"/></g><g transform="translate(529.167 656.459)"><path d="M35.228,-16.945C43.15,2.12,34.862,24.274,16.031,33.33c-18.83,9.057-41.309,1.705-51.259-16.385-7.921-19.063.365-41.216,19.196-50.274c18.83-9.057,41.31-1.704,51.26,16.384Z" fill="#f0d137" stroke-width="0"/></g><g transform="translate(529.396 656.263)"><path d="M14.175,-0.097c1.038,2.162,1.163,4.401.372,6.721-.792,2.321-2.55,4.408-5.281,6.265c0,0,2.085,4.334,2.085,4.334s-4.685,2.255-4.685,2.255-2.008-4.179-2.008-4.179c-2.017.811-4.023,1.368-6.026,1.672-1.998.307-3.759.343-5.281.112c0,0-.203-6.92-.203-6.92c1.611.218,3.342.187,5.195-.096c1.85-.28,3.557-.797,5.119-1.549C6.429,7.091,7.557,5.635,6.844,4.152c-.378-.78-1.078-1.155-2.105-1.128-1.029.031-2.58.286-4.654.772-2.269.546-4.216.899-5.839,1.054-1.623.156-3.2-.088-4.727-.731-1.528-.644-2.749-1.915-3.662-3.814-1.079-2.239-1.194-4.548-.351-6.926.844-2.377,2.702-4.48,5.571-6.308c0,0-2.066-4.297-2.066-4.297s4.687-2.252,4.687-2.252s2.028,4.216,2.028,4.216c1.546-.583,3.095-1.009,4.65-1.276c1.555-.266,3.017-.343,4.385-.233c0,0,.377,6.886.377,6.886-3.278-.155-6.141.357-8.587,1.534-1.537.739-2.547,1.506-3.029,2.3-.484.794-.55,1.555-.2,2.283.35.73,1.029,1.074,2.037,1.038c1.009-.035,2.531-.303,4.566-.802c2.296-.559,4.249-.913,5.861-1.063c1.61-.149,3.181.088,4.716.713c1.535.622,2.758,1.885,3.673,3.785Z" fill="#eab934" stroke-width="0"/></g><g transform="translate(528.456 654.309)"><path d="M14.174,-0.097c1.038,2.162,1.164,4.401.372,6.721-.792,2.321-2.55,4.408-5.281,6.265c0,0,2.087,4.334,2.087,4.334s-4.687,2.255-4.687,2.255-2.008-4.179-2.008-4.179c-2.015.811-4.023,1.368-6.024,1.672-2.001.307-3.761.343-5.283.112c0,0-.203-6.92-.203-6.92c1.611.218,3.342.185,5.195-.096c1.85-.28,3.559-.799,5.119-1.549C6.428,7.091,7.556,5.635,6.841,4.15c-.376-.779-1.076-1.153-2.103-1.126-1.029.031-2.579.286-4.654.772-2.269.546-4.214.897-5.839,1.054-1.623.156-3.2-.088-4.727-.731-1.528-.644-2.749-1.915-3.662-3.814-1.077-2.239-1.194-4.548-.351-6.926.844-2.377,2.702-4.48,5.571-6.308c0,0-2.064-4.297-2.064-4.297s4.685-2.252,4.685-2.252s2.028,4.214,2.028,4.214c1.546-.581,3.097-1.007,4.65-1.274c1.555-.266,3.017-.343,4.385-.233c0,0,.379,6.886.379,6.886-3.28-.155-6.143.357-8.589,1.534-1.537.739-2.547,1.506-3.029,2.3-.484.794-.55,1.555-.2,2.283.35.73,1.029,1.074,2.037,1.038c1.009-.035,2.531-.303,4.566-.802c2.296-.559,4.249-.913,5.861-1.063c1.61-.149,3.181.088,4.716.713c1.535.622,2.76,1.885,3.673,3.785Z" fill="#f4e57d" stroke-width="0"/></g><g transform="translate(455.299 632.821)"><path d="M23.465,-41.094C46.159,-28.135,54.052,0.77,41.093,23.464C28.134,46.16,-0.771,54.053,-23.466,41.092c-22.696-12.959-30.586-41.862-17.629-64.558c12.961-22.695,41.866-30.587,64.56-17.628Z" fill="#f4e57d" stroke-width="0"/></g><g transform="translate(455.298 632.82)"><path d="M19.415,-34C38.192,-23.276,44.722,0.639,34.001,19.415C23.277,38.192,-0.637,44.722,-19.414,34C-38.192,23.277,-44.722,-0.637,-34,-19.415C-23.278,-38.192,0.638,-44.722,19.415,-34Z" fill="#eab934" stroke-width="0"/></g><g transform="translate(454.223 634.704)"><path d="M33.946,19.385c-11.199,17.343-34.14,23.094-52.287,12.732-18.145-10.361-24.851-33.042-15.607-51.503c11.201-17.343,34.142-23.092,52.287-12.731c18.145,10.36,24.853,33.044,15.607,51.502Z" fill="#f0d137" stroke-width="0"/></g><g transform="translate(453.849 634.929)"><path d="M8.791,11.466c-1.188,2.081-2.963,3.457-5.321,4.12-2.36.664-5.078.402-8.157-.79c0,0-2.384,4.177-2.384,4.177s-4.516-2.578-4.516-2.578s2.299-4.027,2.299-4.027c-1.81-1.199-3.407-2.536-4.795-4.01-1.386-1.473-2.417-2.901-3.092-4.284c0,0,5.584-4.098,5.584-4.098.735,1.45,1.744,2.859,3.028,4.223c1.281,1.364,2.677,2.477,4.18,3.335c2.859,1.634,4.699,1.737,5.515.305.43-.752.341-1.539-.266-2.37-.609-.831-1.702-1.961-3.277-3.394-1.739-1.558-3.132-2.961-4.183-4.21s-1.744-2.684-2.081-4.307c-.338-1.621.016-3.349,1.063-5.181c1.233-2.156,3.064-3.562,5.501-4.217c2.436-.655,5.221-.319,8.357,1.005c0,0,2.363-4.139,2.363-4.139s4.515,2.58,4.515,2.58-2.32,4.062-2.32,4.062c1.357.942,2.588,1.978,3.69,3.106s1.997,2.287,2.681,3.475c0,0-5.454,4.221-5.454,4.221-1.734-2.785-3.781-4.854-6.139-6.201-1.48-.844-2.685-1.242-3.612-1.187-.928.052-1.592.427-1.994,1.13-.4.704-.3,1.459.303,2.268.603.811,1.685,1.911,3.251,3.305c1.764,1.571,3.163,2.979,4.201,4.221c1.038,1.241,1.737,2.67,2.092,4.287.358,1.617.013,3.341-1.032,5.173Z" fill="#eab934" stroke-width="0"/></g><g transform="translate(454.924 633.045)"><path d="M8.791,11.466c-1.188,2.083-2.963,3.457-5.321,4.122-2.36.664-5.078.402-8.157-.792c0,0-2.384,4.177-2.384,4.177s-4.516-2.578-4.516-2.578s2.299-4.027,2.299-4.027c-1.81-1.197-3.409-2.536-4.795-4.008-1.386-1.475-2.417-2.903-3.092-4.286c0,0,5.584-4.098,5.584-4.098.734,1.45,1.744,2.86,3.026,4.225c1.283,1.364,2.677,2.477,4.182,3.335c2.859,1.634,4.699,1.735,5.515.305.429-.754.341-1.542-.266-2.373-.609-.829-1.702-1.96-3.277-3.393-1.739-1.558-3.132-2.959-4.183-4.208s-1.744-2.685-2.081-4.307c-.338-1.621.016-3.351,1.063-5.183c1.231-2.156,3.064-3.561,5.501-4.217c2.436-.653,5.221-.317,8.357,1.007c0,0,2.363-4.141,2.363-4.141s4.515,2.58,4.515,2.58-2.32,4.062-2.32,4.062c1.357.942,2.588,1.978,3.69,3.106s1.997,2.287,2.681,3.477c0,0-5.454,4.219-5.454,4.219-1.734-2.785-3.781-4.852-6.139-6.2-1.48-.845-2.685-1.241-3.612-1.188-.928.052-1.592.429-1.994,1.132-.4.702-.3,1.457.301,2.266.603.811,1.687,1.913,3.253,3.305c1.764,1.573,3.163,2.979,4.201,4.221c1.038,1.241,1.737,2.67,2.092,4.289.358,1.617.013,3.341-1.032,5.171Z" fill="#f4e57d" stroke-width="0"/></g><g transform="translate(459.023 717.194)"><path d="M-22.33,-41.72c23.041-12.334,51.719-3.651,64.052,19.388C54.054,0.711,45.373,29.387,22.331,41.72C-0.71,54.054,-29.388,45.373,-41.72,22.332c-12.334-23.042-3.651-51.718,19.39-64.052Z" fill="#f4e57d" stroke-width="0"/></g><g transform="translate(459.023 717.194)"><path d="M-18.476,-34.518c19.063-10.205,42.79-3.022,52.995,16.041c10.203,19.066,3.02,42.791-16.043,52.995-19.064,10.205-42.791,3.022-52.995-16.043-10.203-19.063-3.02-42.79,16.043-52.993Z" fill="#eab934" stroke-width="0"/></g><g transform="translate(460.047 719.105)"><path d="M34.465,-18.448c8.736,18.706,1.41,41.195-17.012,51.057-18.423,9.86-41.198,3.482-51.918-14.162-8.736-18.704-1.41-41.195,17.012-51.055c18.421-9.86,41.198-3.482,51.918,14.16Z" fill="#f0d137" stroke-width="0"/></g><g transform="translate(460.267 718.891)"><path d="M14.156,-0.699c1.131,2.112,1.351,4.346.662,6.697-.691,2.354-2.361,4.514-5.007,6.488c0,0,2.271,4.241,2.271,4.241s-4.585,2.454-4.585,2.454-2.187-4.088-2.187-4.088c-1.979.895-3.959,1.537-5.945,1.929-1.986.391-3.743.504-5.274.341c0,0-.5-6.907-.5-6.907c1.617.148,3.346.042,5.185-.318c1.838-.363,3.52-.95,5.048-1.769C6.727,6.816,7.79,5.312,7.013,3.86c-.409-.763-1.126-1.108-2.151-1.035-1.025.074-2.564.398-4.616.972-2.244.644-4.173,1.079-5.789,1.304-1.615.226-3.2.05-4.753-.526-1.555-.576-2.828-1.797-3.822-3.655-1.174-2.191-1.389-4.489-.649-6.902.739-2.411,2.505-4.593,5.293-6.543c0,0-2.249-4.203-2.249-4.203s4.586-2.453,4.586-2.453s2.206,4.126,2.206,4.126c1.521-.651,3.052-1.143,4.592-1.476c1.542-.332,2.998-.475,4.37-.42c0,0,.676,6.861.676,6.861-3.283-.012-6.121.624-8.514,1.904-1.504.803-2.48,1.614-2.93,2.426-.449.814-.481,1.579-.1,2.29.382.714,1.077,1.031,2.082.952c1.005-.081,2.516-.414,4.527-.999c2.27-.659,4.204-1.097,5.807-1.315c1.602-.218,3.185-.05,4.745.508c1.559.557,2.838,1.766,3.832,3.625Z" fill="#eab934" stroke-width="0"/></g><g transform="translate(459.244 716.979)"><path d="M14.156,-0.699c1.131,2.114,1.351,4.348.662,6.699-.691,2.352-2.361,4.514-5.007,6.486c0,0,2.271,4.241,2.271,4.241s-4.585,2.454-4.585,2.454-2.187-4.088-2.187-4.088c-1.977.897-3.959,1.539-5.945,1.929-1.986.393-3.744.504-5.273.341c0,0-.501-6.906-.501-6.906c1.619.149,3.346.043,5.185-.319c1.838-.361,3.52-.95,5.048-1.769C6.727,6.817,7.79,5.312,7.013,3.862c-.409-.765-1.126-1.11-2.151-1.037-1.025.076-2.564.398-4.616.972-2.243.646-4.173,1.079-5.789,1.306-1.615.225-3.2.049-4.753-.528-1.555-.576-2.827-1.795-3.822-3.653-1.174-2.191-1.389-4.491-.649-6.904.739-2.41,2.505-4.592,5.294-6.543c0,0-2.25-4.201-2.25-4.201s4.586-2.455,4.586-2.455s2.206,4.126,2.206,4.126c1.521-.649,3.052-1.141,4.592-1.475c1.542-.333,2.998-.475,4.37-.421c0,0,.676,6.861.676,6.861-3.283-.011-6.121.624-8.514,1.906-1.504.803-2.48,1.612-2.93,2.426-.449.814-.481,1.577-.1,2.29.382.713,1.077,1.029,2.082.95c1.006-.079,2.516-.413,4.527-.998c2.27-.66,4.204-1.096,5.807-1.316c1.604-.218,3.186-.05,4.744.508c1.561.557,2.839,1.766,3.833,3.625Z" fill="#f4e57d" stroke-width="0"/></g><g transform="translate(598.253 719.368)"><path d="M23.464,-41.094C46.16,-28.137,54.053,0.768,41.092,23.464C28.133,46.159,-0.771,54.053,-23.467,41.092c-22.694-12.959-30.586-41.864-17.627-64.56c12.959-22.694,41.864-30.585,64.558-17.626Z" fill="#f4e57d" stroke-width="0"/></g><g transform="translate(598.251 719.366)"><path d="M19.415,-33.999C38.192,-23.275,44.722,0.638,34.001,19.416C23.277,38.191,-0.637,44.723,-19.414,33.999C-38.192,23.278,-44.722,-0.638,-34,-19.415c10.724-18.776,34.638-25.308,53.415-14.584Z" fill="#eab934" stroke-width="0"/></g><g transform="translate(597.178 721.249)"><path d="M33.946,19.385c-11.199,17.343-34.14,23.094-52.287,12.732-18.145-10.361-24.851-33.041-15.605-51.501c11.199-17.343,34.14-23.094,52.285-12.733c18.145,10.36,24.853,33.044,15.607,51.502Z" fill="#f0d137" stroke-width="0"/></g><g transform="translate(596.803 721.474)"><path d="M8.79,11.466c-1.188,2.083-2.961,3.458-5.321,4.123-2.359.664-5.078.401-8.157-.793c0,0-2.382,4.177-2.382,4.177s-4.516-2.578-4.516-2.578s2.299-4.027,2.299-4.027c-1.812-1.199-3.409-2.536-4.797-4.008-1.384-1.475-2.417-2.903-3.09-4.286c0,0,5.584-4.098,5.584-4.098.733,1.452,1.742,2.86,3.026,4.225c1.281,1.364,2.677,2.477,4.18,3.335c2.861,1.634,4.698,1.735,5.515.305.43-.752.342-1.541-.266-2.372-.607-.829-1.7-1.961-3.275-3.394-1.741-1.558-3.134-2.959-4.185-4.208-1.049-1.249-1.744-2.685-2.079-4.307-.338-1.621.014-3.351,1.061-5.183c1.233-2.156,3.066-3.561,5.503-4.217c2.436-.653,5.221-.317,8.355,1.005c0,0,2.363-4.139,2.363-4.139s4.517,2.58,4.517,2.58-2.32,4.062-2.32,4.062c1.357.942,2.588,1.978,3.69,3.106s1.995,2.287,2.679,3.477c0,0-5.452,4.219-5.452,4.219-1.736-2.785-3.783-4.852-6.141-6.2-1.48-.845-2.683-1.241-3.612-1.188-.926.052-1.592.429-1.994,1.132-.399.702-.299,1.457.303,2.266.603.811,1.685,1.911,3.253,3.305c1.764,1.571,3.161,2.979,4.201,4.221c1.036,1.241,1.735,2.67,2.09,4.289.36,1.617.013,3.341-1.032,5.171Z" fill="#eab934" stroke-width="0"/></g><g transform="translate(597.878 719.592)"><path d="M8.791,11.466c-1.188,2.081-2.963,3.455-5.321,4.12-2.359.664-5.08.403-8.157-.789c0,0-2.384,4.177-2.384,4.177s-4.514-2.578-4.514-2.578s2.297-4.028,2.297-4.028c-1.81-1.199-3.409-2.537-4.795-4.009-1.386-1.474-2.417-2.901-3.09-4.284c0,0,5.582-4.098,5.582-4.098.734,1.45,1.744,2.859,3.026,4.223c1.283,1.364,2.677,2.476,4.182,3.334c2.859,1.634,4.698,1.737,5.515.305.43-.752.341-1.541-.266-2.37-.607-.831-1.702-1.96-3.277-3.393-1.739-1.558-3.132-2.962-4.183-4.211s-1.744-2.683-2.081-4.306c-.338-1.621.016-3.35,1.063-5.181c1.233-2.158,3.066-3.563,5.501-4.218c2.436-.655,5.221-.319,8.357,1.005c0,0,2.363-4.139,2.363-4.139s4.515,2.578,4.515,2.578-2.32,4.065-2.32,4.065c1.359.942,2.588,1.977,3.69,3.105s1.995,2.288,2.679,3.476c0,0-5.452,4.221-5.452,4.221-1.736-2.787-3.783-4.855-6.139-6.202-1.48-.844-2.685-1.241-3.612-1.188-.928.052-1.592.429-1.994,1.131-.399.704-.3,1.46.301,2.269.603.811,1.687,1.91,3.255,3.304c1.762,1.571,3.161,2.979,4.199,4.22C8.769,3.248,9.466,4.677,9.823,6.294c.358,1.617.013,3.34-1.032,5.172Z" fill="#f4e57d" stroke-width="0"/></g><g transform="translate(574.614 591.307)"><path d="M-79.019,170.866c76.997,10.373,158.038-7.043,158.038-37.126c0,0,0-231.316,0-231.316c0-33.555-43.606-51.079-43.606-68.829c0,0,0-14.835,0-14.835-8.97,1.418-19.287,2.571-30.566,3.392c0,0,0,11.443,0,11.443c0,17.747,43.606,35.277,43.606,68.829c0,0,0,231.316,0,231.316c0,26.043-71.648,39.977-127.472,37.126Z" fill="#9b9b9b" fill-opacity="0.2" stroke-width="0"/></g><g transform="translate(534.878 582.179)"><path d="M89.109,-191.74c0,0,0,26.511,0,26.511c0,24.827,41.011,40.025,41.011,68.829c0,0,0,255.702,0,255.702c0,10.728-28.565,19.524-36.182,21.594-29.272,7.957-63.511,10.534-93.773,10.69-30.244.154-64.692-2.071-93.978-9.912-8.298-2.223-36.306-10.742-36.306-22.372c0,0,0-255.702,0-255.702c0-28.804,41.011-44.002,41.011-68.829c0,0,0-26.511,0-26.511" paint-order="stroke fill markers" fill="none" fill-rule="evenodd" stroke="#545454" stroke-width="4" stroke-miterlimit="10"/></g><g transform="translate(534.878 390.429)"><path d="M107.013,-12.362c0,0,0,5.439,0,5.439.218.502.334,1.01.334,1.524C107.347,5.249,59.286,13.884,0,13.884s-107.347-8.635-107.347-19.283c0,0,0-8.485,0-8.485C-107.347,-3.234,-59.286,5.4,0,5.4c56.431,0,102.693-7.823,107.013-17.762Z" fill="#545454" stroke-width="0"/></g><g transform="translate(534.877 373.01)"><path d="M0.001,19.055c58.942,0,107.013-8.56,107.013-19.056c0-10.495-48.071-19.054-107.013-19.054s-107.015,8.559-107.015,19.054c0,10.496,48.073,19.056,107.015,19.056Z" fill="#545454" stroke-width="0"/></g><g transform="translate(534.878 366.884)"><path d="M103.951,0.001C103.808,10.521,57.409,19.055,0,19.055c-57.412,0-103.952-8.53-103.952-19.054c0,0,0-19.056,0-19.056s103.952,0,103.952,0s103.951,0,103.951,0s0,19.056,0,19.056Z" fill="#81ba38" stroke-width="0"/></g><g transform="translate(594.744 365.965)"><path d="M15.283,14.073c-8.705,1.674-19.052,3.057-30.566,4.062c0,0,0-36.27,0-36.27s30.566,0,30.566,0s0,32.208,0,32.208Z" fill="#81ba38" stroke-width="0"/></g><g transform="translate(534.877 347.733)"><path d="M107.014,-1.649C106.867,8.873,59.102,17.408,0.001,17.408c-59.103,0-107.015-8.533-107.015-19.057c0,0,0-15.759,0-15.759s107.015,0,107.015,0s107.013,0,107.013,0s0,15.759,0,15.759Z" fill="#b4f461" stroke-width="0"/></g><g transform="translate(594.744 348.214)"><path d="M15.283,11.423c-8.824,1.555-19.151,2.837-30.566,3.77c0,0,0-30.386,0-30.386s30.566,0,30.566,0s0,26.616,0,26.616Z" fill="#b4f461" stroke-width="0"/></g><g transform="translate(534.877 330.326)"><path d="M0.001,14.445C58.943,14.445,107.014,7.956,107.014,0c0-7.957-48.071-14.445-107.013-14.445s-107.015,6.488-107.015,14.445c0,7.956,48.073,14.445,107.015,14.445Z" transform="translate(.279024 0)" fill="#81ba38" stroke-width="0"/></g><g transform="translate(534.878 330.326)"><path d="M0.001,9.85c53.87,0,97.806-4.425,97.806-9.851c0-5.424-43.936-9.849-97.806-9.849s-97.808,4.425-97.808,9.849c0,5.426,43.938,9.851,97.808,9.851Z" fill="#b6da89" stroke-width="0"/></g><g transform="translate(534.879 326.173)"><path d="M-0.001,-5.697c54.016,0,97.808,4.411,97.808,9.85c0,.526-.415,1.042-1.2,1.544-7.358-4.705-47.807-8.305-96.608-8.305s-89.25,3.6-96.608,8.305c-.787-.502-1.198-1.018-1.198-1.544c0-5.439,43.788-9.85,97.806-9.85Z" fill="#b6da89" stroke-width="0"/></g><g transform="translate(600.494 450.469)"><path d="M63,60c-123.523,41.031-255.375,0-255.375,0s-.523,26.906-.5,27.125c143.352,38.906,256.125-.25,256.125-.25s-.023-27.219-.25-26.875Z" fill="#b4f461" fill-opacity="0.6" stroke="#afafaf" stroke-width="0"/></g><g transform="translate(600.494 450.469)"><path d="M63.563,99.875C-73.523,143.031,-192.5,100,-192.5,100s-.773,45.781-.5,46.125c138.977,52.906,255.938,0,255.938,0s.789-46.344.625-46.25Z" fill="#b4f461" fill-opacity="0.6" stroke="#afafaf" stroke-width="0"/></g></g><g id="egI9e4XDyQ3121_to" style="offset-path:path('M1474.129,557.057Q1189.796,132.724,800.129,177.057L800.129,207.057L800.129,207.057Q1272,204,1412.129,537.057');offset-rotate:0deg"><g id="egI9e4XDyQ3121_tr" transform="rotate(35)"><g transform="scale(0.9,0.9) translate(-760.129,-185.057)"><g><g transform="translate(670.69 226.218)"><path d="M51.635,-4.645c-15.486-6.793-31.267-14.131-47.562-15.631-22.218-2.046-42.673,8.517-62.901,16.483.307,2.282,1.553,4.823,4.252,7.805c2.289,2.527,4.687,3.475,8.066,3.785c6.181.567,12.407.636,18.598.204-1.303,2.532-.464,5.773,1.404,7.922s4.571,3.385,7.282,4.257c4.879,1.568,10.027,2.142,15.138,2.034c5.633-.12,10.462-2.156,15.755-3.955c8.843-3.006,17.702-5.962,26.578-8.869c3.602-1.179,5.808-2.222,8.674-4.511c3.332-2.661,7.677-4.041,11.353-6.173.184-.088.371-.173.556-.261-2.392-1.004-4.788-2.035-7.193-3.09Z" fill="#e5e5e5" stroke="#545454" stroke-width="4" stroke-linecap="round" stroke-linejoin="round"/></g><g transform="translate(652.545 141.738)"><path d="M40.507,-22.926c-3.261.119-6.525.116-9.791.052-13.514-.265-27.052-1.573-40.492.403-1.439.211-2.917.477-4.136,1.27-1.643,1.07-2.567,2.924-3.45,4.675-6.144,12.185-13.912,23.55-23.034,33.7-2.147,2.388-4.367,4.73-6.317,7.274c16.442-9.031,33.46-17.002,50.96-23.762c15.43-5.961,28.569-15.491,42.466-24.327-2.115.35-4.203.642-6.206.715Z" fill="#e5e5e5" stroke-width="0"/></g><g transform="translate(762.531 132.98)"><path d="M221.562,73.346c-1.65-1.014-3.358-2.043-5.118-3.285-.637-.45-1.261-.922-1.875-1.412-5.328-4.252-9.875-9.871-15.202-14.176-6.595-5.33-12.55-11.358-18.988-16.856-14.517-12.395-28.818-24.987-42.761-38.026-18.363-17.17-36.27-34.82-54.014-52.626-14.758-14.808-29.602-32.235-50.263-38.84-8.847-2.828-18.432-1.421-27.574.22-25.386,4.555-50.466,10.699-75.926,14.858-24.373,3.981-49.264,2.533-70.968,16.072-17.61,10.986-27.911,30.36-36.948,49.046-8.97,18.549-18.734,36.738-26.657,55.777-3.63,8.722-5.819,18.45-10.232,26.732-2.391,4.487-6.598,10.485-4.558,15.667-.009-.147-.038-.277-.043-.426-.133-3.933,2.114-7.522,4.461-10.68c13.686-18.414,37.022-30.342,56.833-41.348.519-.288,1.052-.552,1.573-.838c1.95-2.544,4.17-4.885,6.316-7.273c9.122-10.15,16.89-21.515,23.034-33.699.883-1.752,1.807-3.606,3.451-4.676c1.219-.793,2.697-1.06,4.136-1.271c13.44-1.976,26.977-.666,40.491-.401c3.266.063,6.53.066,9.791-.053c2.003-.073,4.091-.366,6.206-.716c2.338-1.487,4.691-2.958,7.087-4.384c20.075-11.955,42.138-22.513,66.058-21.877c18.505.492,36.141,7.658,52.876,15.57c35.086,16.587,68.375,36.968,99.121,60.649c8.536,6.575,22.449,11.795,26.557,22.57c3.638,9.543,4.821,23.23,5.216,33.374.037.952.089,1.984.7,2.715.379.453.925.723,1.464.97c4.979-3.864,9.927-7.789,14.822-11.823c3.742-3.083,7.366-6.282,10.934-9.534Z" fill="#f6f6f6" stroke-width="0"/></g><g transform="translate(765.83 122.301)"><path d="M218.263,84.024c-1.65-1.014-3.358-2.042-5.118-3.284-.637-.45-1.261-.922-1.875-1.412-5.328-4.252-9.875-9.872-15.202-14.177-6.595-5.33-12.55-11.357-18.988-16.855-14.517-12.395-28.818-24.987-42.761-38.026-18.363-17.17-36.27-34.821-54.014-52.627-14.758-14.808-29.602-32.234-50.263-38.839-8.847-2.828-18.432-1.422-27.574.219-25.386,4.555-50.466,10.699-75.926,14.858-24.373,3.981-49.264,2.533-70.968,16.072-17.61,10.986-27.911,30.361-36.948,49.047-8.97,18.549-18.734,36.737-26.657,55.776-3.63,8.722-5.819,18.45-10.232,26.732" paint-order="stroke fill markers" fill="none" fill-rule="evenodd" stroke="#545454" stroke-width="4" stroke-linecap="round" stroke-linejoin="round"/></g><g transform="translate(652.554 141.721)"><path d="M-40.405,17.19c9.122-10.149,16.89-21.515,23.034-33.699.883-1.752,1.807-3.606,3.45-4.676c1.219-.793,2.698-1.059,4.137-1.271c13.44-1.976,26.977-.666,40.491-.401c3.266.064,6.53.067,9.791-.053c2-.073,4.085-.364,6.197-.714C32.801,-14.789,19.666,-5.258,4.237,0.702c-17.487,6.755-34.5,14.707-50.932,23.729c1.944-2.531,4.153-4.863,6.29-7.241Z" paint-order="stroke fill markers" fill="none" fill-rule="evenodd" stroke="#545454" stroke-width="4" stroke-linecap="round" stroke-linejoin="round"/></g><g transform="translate(661.46 229.945)"><path d="M-18.682,4.274c0,0,37.364-8.548,37.364-8.548" paint-order="stroke fill markers" fill="none" fill-rule="evenodd" stroke="#545454" stroke-width="4" stroke-linecap="round" stroke-linejoin="round"/></g><g transform="translate(559.112 214.323)"><path d="M2.094,16.33c-1.547.485-3.092.841-4.588.937-3.541.226-7.856.888-11.203-.614-2.387-1.072-4.127-3.225-5.402-5.511-1.218-2.184-2.108-4.62-2.069-7.12.056-3.637,2.09-7.018,4.757-9.491c2.757-2.558,6.128-4.078,9.291-6.014c3.313-2.027,6.6-3.95,10.191-5.463c1.492-.628,3.065-1.209,4.682-1.12c2.754.151,6.548,4.311,8.081,6.455c1.655,2.315,2.68,5.016,3.542,7.728.889,2.797,1.83,6.066,1.206,9.02-.527,2.496-3.511,4.598-5.605,5.918-1.443.909-3.049,1.523-4.649,2.116-2.56.948-5.401,2.27-8.234,3.159Z" paint-order="stroke fill markers" fill="none" fill-rule="evenodd" stroke="#545454" stroke-width="4" stroke-miterlimit="10"/></g></g></g></g></g><g id="egI9e4XDyQ3137_to" style="offset-path:path('M1474.129,557.057Q1189.796,132.724,800.129,177.057L800.129,207.057L800.129,207.057Q1272,204,1412.129,537.057');offset-rotate:0deg"><g id="egI9e4XDyQ3137_tr" transform="rotate(35)"><g transform="scale(0.9,0.9) translate(-760.129,-185.057)"><g id="egI9e4XDyQ3138_to" style="offset-path:path('M560.715,220.73C561.578,287.355,565.032,553.855,565.895,620.48');offset-rotate:0deg"><g id="egI9e4XDyQ3138" transform="rotate(5) scale(1.11111,1.11111) translate(-572.138,-227.683)"><g transform="translate(572.138 227.683)"><path d="M29.186,-51.11C57.411,-34.993,67.227,0.958,51.108,29.184C34.99,57.411,-0.957,67.227,-29.183,51.108c-28.227-16.118-38.043-52.069-21.926-80.294c16.12-28.225,52.067-38.041,80.295-21.924Z" fill="#f4e57d" stroke-width="0"/></g><g transform="translate(572.138 227.682)"><path d="M24.147,-42.285C47.501,-28.95,55.621,0.793,42.286,24.147c-13.337,23.354-43.078,31.475-66.432,18.14-23.354-13.337-31.475-43.08-18.138-66.434c13.335-23.354,43.077-31.475,66.431-18.138Z" fill="#eab934" stroke-width="0"/></g><g transform="translate(570.802 230.025)"><path d="M42.222,24.108c-13.93,21.57-42.464,28.724-65.031,15.836-22.569-12.886-30.909-41.093-19.41-64.055c13.928-21.57,42.461-28.72,65.028-15.834C45.378,-27.06,53.719,1.151,42.222,24.108Z" fill="#f0d137" stroke-width="0"/></g><g transform="translate(570.336 230.304)"><path d="M10.933,14.261c-1.478,2.589-3.686,4.297-6.618,5.125-2.933.825-6.316.499-10.142-.983c0,0-2.968,5.195-2.968,5.195s-5.615-3.207-5.615-3.207s2.86-5.008,2.86-5.008c-2.251-1.491-4.239-3.154-5.964-4.988-1.724-1.833-3.008-3.608-3.845-5.327c0,0,6.942-5.098,6.942-5.098.914,1.804,2.169,3.556,3.766,5.253c1.594,1.697,3.33,3.081,5.2,4.148c3.558,2.032,5.843,2.16,6.858.379.536-.935.424-1.916-.331-2.949s-2.114-2.438-4.075-4.219c-2.163-1.939-3.896-3.683-5.203-5.237-1.304-1.553-2.169-3.339-2.586-5.357-.42-2.016.021-4.167,1.321-6.443c1.532-2.682,3.813-4.431,6.842-5.245c3.031-.814,6.495-.397,10.392,1.25c0,0,2.94-5.148,2.94-5.148s5.617,3.209,5.617,3.209-2.885,5.052-2.885,5.052c1.688,1.172,3.218,2.46,4.589,3.863c1.369,1.403,2.48,2.844,3.331,4.322c0,0-6.782,5.25-6.782,5.25-2.157-3.467-4.702-6.037-7.635-7.711-1.841-1.051-3.337-1.546-4.491-1.48s-1.979.534-2.481,1.409c-.497.874-.372,1.814.376,2.819.751,1.008,2.096,2.377,4.046,4.11C6.584,-0.8,8.326,0.951,9.617,2.493c1.291,1.546,2.158,3.323,2.6,5.334.445,2.012.016,4.156-1.284,6.434Z" fill="#eab934" stroke-width="0"/></g><g transform="translate(571.674 227.962)"><path d="M10.933,14.261c-1.478,2.591-3.685,4.299-6.618,5.127-2.933.825-6.316.499-10.145-.985c0,0-2.965,5.195-2.965,5.195s-5.615-3.207-5.615-3.207s2.86-5.008,2.86-5.008c-2.251-1.489-4.239-3.154-5.966-4.985-1.722-1.834-3.006-3.611-3.843-5.33c0,0,6.942-5.098,6.942-5.098.914,1.807,2.169,3.558,3.766,5.255c1.594,1.697,3.33,3.081,5.2,4.149c3.558,2.032,5.843,2.157,6.858.378.536-.935.424-1.918-.331-2.951-.755-1.031-2.114-2.438-4.075-4.219-2.163-1.939-3.896-3.681-5.203-5.234-1.304-1.553-2.169-3.339-2.588-5.358-.418-2.016.02-4.166,1.323-6.445c1.532-2.682,3.813-4.429,6.842-5.245c3.031-.812,6.495-.395,10.395,1.25c0,0,2.937-5.148,2.937-5.148s5.617,3.209,5.617,3.209-2.887,5.052-2.887,5.052c1.69,1.172,3.22,2.46,4.591,3.863c1.369,1.403,2.48,2.844,3.331,4.324c0,0-6.781,5.248-6.781,5.248-2.158-3.464-4.703-6.035-7.636-7.711-1.841-1.051-3.337-1.544-4.491-1.478-1.154.064-1.982.534-2.481,1.407-.497.874-.372,1.814.376,2.819.751,1.008,2.098,2.379,4.046,4.11C6.584,-0.8,8.326,0.951,9.617,2.495s2.158,3.321,2.6,5.335c.445,2.011.016,4.155-1.284,6.431Z" fill="#f4e57d" stroke-width="0"/></g></g></g></g></g></g><g id="egI9e4XDyQ3151_to" style="offset-path:path('M1474.129,557.057Q1189.796,132.724,800.129,177.057L800.129,207.057L800.129,207.057Q1272,204,1412.129,537.057');offset-rotate:0deg"><g id="egI9e4XDyQ3151_tr" transform="rotate(35)"><g transform="scale(0.9,0.9) translate(-760.129,-185.057)"><g transform="translate(758.237 184.753)"><path d="M215.404,30.696c-3.215-1.663-6.24-3.505-8.746-5.7-8.154-7.141-11.261-18.809-19.182-26.399-6.346-6.045-14.403-9.974-21.313-15.295-30.746-23.681-64.035-44.062-99.121-60.65-16.735-7.912-34.371-15.077-52.876-15.57-23.92-.636-45.983,9.922-66.058,21.877-16.635,9.906-31.527,21.749-49.553,28.712-18.054,6.974-35.608,15.212-52.532,24.599-19.811,11.007-43.147,22.934-56.833,41.348-2.347,3.159-4.594,6.747-4.461,10.68.825,24.442,50.442,10.143,62.703,5.727c22.26-8.018,44.606-21.09,69.093-18.836c16.295,1.5,32.077,8.838,47.562,15.631c6.291,2.76,12.534,5.43,18.742,7.581c23.594,8.177,49.237,10.56,73.888,6.417c13.656-2.296,36.08-6.995,48.43,1.944c10.11,7.317,14.312,26.146,18.483,40.792c31.82-17.652,62.3-38.552,91.292-62.447.163-.134.319-.276.482-.411Z" fill="#f6f6f6" stroke-width="0"/></g><g transform="translate(837.119 225.817)"><path d="M123.349,-36.653c-3.189-2.578-7.131-5.72-10.148-8.485-17.669,11.901-65.44-7.353-107.977,23.685-40.036,29.213-124.123,11.605-150.419,5.104c10.295,3.122,20.409,7.723,30.399,12.106c6.291,2.759,12.534,5.429,18.742,7.581c23.594,8.177,49.237,10.559,73.888,6.415c13.655-2.295,36.08-6.993,48.43,1.945c10.11,7.317,14.312,26.146,18.483,40.792c31.82-17.652,62.3-38.551,91.292-62.446c3.742-3.083,5.588-4.67,9.156-7.922-1.65-1.015-16.519-14.47-21.846-18.775Z" fill="#eaeaea" stroke-width="0"/></g><g transform="translate(758.237 196.39)"><path d="M-53.163,-81.916c-16.127,9.745-30.716,21.164-48.282,27.949-18.054,6.974-35.608,15.212-52.533,24.6-19.81,11.006-43.146,22.933-56.832,41.348-2.347,3.158-4.594,6.746-4.461,10.679.825,24.443,50.441,10.144,62.703,5.727c22.259-8.018,44.606-21.09,69.093-18.836c16.295,1.5,32.077,8.839,47.562,15.632c6.291,2.759,12.534,5.429,18.742,7.58C6.423,40.94,32.066,43.324,56.717,39.18c13.656-2.295,36.08-6.995,48.43,1.944c10.11,7.317,14.312,26.147,18.483,40.792c31.82-17.651,62.3-38.551,91.292-62.447.163-.134.319-.276.482-.411" paint-order="stroke fill markers" fill="none" fill-rule="evenodd" stroke="#545454" stroke-width="4" stroke-linecap="round" stroke-linejoin="round"/></g><g transform="translate(559.112 214.323)"><path d="M2.094,16.33c-1.547.485-3.092.841-4.588.937-3.541.226-7.856.888-11.203-.614-2.387-1.072-4.127-3.225-5.402-5.511-1.218-2.184-2.108-4.62-2.069-7.12.056-3.637,2.09-7.018,4.757-9.491c2.757-2.558,6.128-4.078,9.291-6.014c3.313-2.027,6.6-3.95,10.191-5.463c1.492-.628,3.065-1.209,4.682-1.12c2.754.151,6.548,4.311,8.081,6.455c1.655,2.315,2.68,5.016,3.542,7.728.889,2.797,1.83,6.066,1.206,9.02-.527,2.496-3.511,4.598-5.605,5.918-1.443.909-3.049,1.523-4.649,2.116-2.56.948-5.401,2.27-8.234,3.159Z" fill="#fff" stroke="#545454" stroke-width="4" stroke-miterlimit="10"/></g></g></g></g><g id="egI9e4XDyQ3160_to" style="offset-path:path('M-297.871,446.057C-184.204,407.89,189.258,189.614,384.129,217.057Q384.243,217.102,384.129,217.057Q384.379,216.557,408.129,235.057Q408.218,234.903,408.129,235.057C83.566,794.558,-136.871,578.39,-245.871,647.057');offset-rotate:0deg"><g id="egI9e4XDyQ3160_tr" transform="rotate(30)"><g transform="scale(-0.9,0.9) translate(-760.129,-185.057)"><g id="egI9e4XDyQ3161" opacity="0"><g transform="translate(670.69 226.218)"><path d="M51.635,-4.645c-15.486-6.793-31.267-14.131-47.562-15.631-22.218-2.046-42.673,8.517-62.901,16.483.307,2.282,1.553,4.823,4.252,7.805c2.289,2.527,4.687,3.475,8.066,3.785c6.181.567,12.407.636,18.598.204-1.303,2.532-.464,5.773,1.404,7.922s4.571,3.385,7.282,4.257c4.879,1.568,10.027,2.142,15.138,2.034c5.633-.12,10.462-2.156,15.755-3.955c8.843-3.006,17.702-5.962,26.578-8.869c3.602-1.179,5.808-2.222,8.674-4.511c3.332-2.661,7.677-4.041,11.353-6.173.184-.088.371-.173.556-.261-2.392-1.004-4.788-2.035-7.193-3.09Z" fill="#e5e5e5" stroke="#545454" stroke-width="4" stroke-linecap="round" stroke-linejoin="round"/></g><g transform="translate(652.545 141.738)"><path d="M40.507,-22.926c-3.261.119-6.525.116-9.791.052-13.514-.265-27.052-1.573-40.492.403-1.439.211-2.917.477-4.136,1.27-1.643,1.07-2.567,2.924-3.45,4.675-6.144,12.185-13.912,23.55-23.034,33.7-2.147,2.388-4.367,4.73-6.317,7.274c16.442-9.031,33.46-17.002,50.96-23.762c15.43-5.961,28.569-15.491,42.466-24.327-2.115.35-4.203.642-6.206.715Z" fill="#e5e5e5" stroke-width="0"/></g><g transform="translate(762.531 132.98)"><path d="M221.562,73.346c-1.65-1.014-3.358-2.043-5.118-3.285-.637-.45-1.261-.922-1.875-1.412-5.328-4.252-9.875-9.871-15.202-14.176-6.595-5.33-12.55-11.358-18.988-16.856-14.517-12.395-28.818-24.987-42.761-38.026-18.363-17.17-36.27-34.82-54.014-52.626-14.758-14.808-29.602-32.235-50.263-38.84-8.847-2.828-18.432-1.421-27.574.22-25.386,4.555-50.466,10.699-75.926,14.858-24.373,3.981-49.264,2.533-70.968,16.072-17.61,10.986-27.911,30.36-36.948,49.046-8.97,18.549-18.734,36.738-26.657,55.777-3.63,8.722-5.819,18.45-10.232,26.732-2.391,4.487-6.598,10.485-4.558,15.667-.009-.147-.038-.277-.043-.426-.133-3.933,2.114-7.522,4.461-10.68c13.686-18.414,37.022-30.342,56.833-41.348.519-.288,1.052-.552,1.573-.838c1.95-2.544,4.17-4.885,6.316-7.273c9.122-10.15,16.89-21.515,23.034-33.699.883-1.752,1.807-3.606,3.451-4.676c1.219-.793,2.697-1.06,4.136-1.271c13.44-1.976,26.977-.666,40.491-.401c3.266.063,6.53.066,9.791-.053c2.003-.073,4.091-.366,6.206-.716c2.338-1.487,4.691-2.958,7.087-4.384c20.075-11.955,42.138-22.513,66.058-21.877c18.505.492,36.141,7.658,52.876,15.57c35.086,16.587,68.375,36.968,99.121,60.649c8.536,6.575,22.449,11.795,26.557,22.57c3.638,9.543,4.821,23.23,5.216,33.374.037.952.089,1.984.7,2.715.379.453.925.723,1.464.97c4.979-3.864,9.927-7.789,14.822-11.823c3.742-3.083,7.366-6.282,10.934-9.534Z" fill="#f6f6f6" stroke-width="0"/></g><g transform="translate(765.83 122.301)"><path d="M218.263,84.024c-1.65-1.014-3.358-2.042-5.118-3.284-.637-.45-1.261-.922-1.875-1.412-5.328-4.252-9.875-9.872-15.202-14.177-6.595-5.33-12.55-11.357-18.988-16.855-14.517-12.395-28.818-24.987-42.761-38.026-18.363-17.17-36.27-34.821-54.014-52.627-14.758-14.808-29.602-32.234-50.263-38.839-8.847-2.828-18.432-1.422-27.574.219-25.386,4.555-50.466,10.699-75.926,14.858-24.373,3.981-49.264,2.533-70.968,16.072-17.61,10.986-27.911,30.361-36.948,49.047-8.97,18.549-18.734,36.737-26.657,55.776-3.63,8.722-5.819,18.45-10.232,26.732" paint-order="stroke fill markers" fill="none" fill-rule="evenodd" stroke="#545454" stroke-width="4" stroke-linecap="round" stroke-linejoin="round"/></g><g transform="translate(652.554 141.721)"><path d="M-40.405,17.19c9.122-10.149,16.89-21.515,23.034-33.699.883-1.752,1.807-3.606,3.45-4.676c1.219-.793,2.698-1.059,4.137-1.271c13.44-1.976,26.977-.666,40.491-.401c3.266.064,6.53.067,9.791-.053c2-.073,4.085-.364,6.197-.714C32.801,-14.789,19.666,-5.258,4.237,0.702c-17.487,6.755-34.5,14.707-50.932,23.729c1.944-2.531,4.153-4.863,6.29-7.241Z" paint-order="stroke fill markers" fill="none" fill-rule="evenodd" stroke="#545454" stroke-width="4" stroke-linecap="round" stroke-linejoin="round"/></g><g transform="translate(661.46 229.945)"><path d="M-18.682,4.274c0,0,37.364-8.548,37.364-8.548" paint-order="stroke fill markers" fill="none" fill-rule="evenodd" stroke="#545454" stroke-width="4" stroke-linecap="round" stroke-linejoin="round"/></g><g transform="translate(559.112 214.323)"><path d="M2.094,16.33c-1.547.485-3.092.841-4.588.937-3.541.226-7.856.888-11.203-.614-2.387-1.072-4.127-3.225-5.402-5.511-1.218-2.184-2.108-4.62-2.069-7.12.056-3.637,2.09-7.018,4.757-9.491c2.757-2.558,6.128-4.078,9.291-6.014c3.313-2.027,6.6-3.95,10.191-5.463c1.492-.628,3.065-1.209,4.682-1.12c2.754.151,6.548,4.311,8.081,6.455c1.655,2.315,2.68,5.016,3.542,7.728.889,2.797,1.83,6.066,1.206,9.02-.527,2.496-3.511,4.598-5.605,5.918-1.443.909-3.049,1.523-4.649,2.116-2.56.948-5.401,2.27-8.234,3.159Z" paint-order="stroke fill markers" fill="none" fill-rule="evenodd" stroke="#545454" stroke-width="4" stroke-miterlimit="10"/></g></g></g></g></g><g id="egI9e4XDyQ3176_to" style="offset-path:path('M-297.871,446.057C-184.204,407.89,189.258,189.614,384.129,217.057Q384.243,217.102,384.129,217.057Q384.379,216.557,408.129,235.057Q408.218,234.903,408.129,235.057C83.566,794.558,-136.871,578.39,-245.871,647.057');offset-rotate:0deg"><g id="egI9e4XDyQ3176_tr" transform="rotate(30)"><g transform="scale(-0.9,0.9) translate(-760.129,-185.057)"><g id="egI9e4XDyQ3177_to" style="offset-path:path('M560.715,220.73C557.952,276.389,546.901,499.024,544.138,554.683');offset-rotate:0deg"><g id="egI9e4XDyQ3177" transform="rotate(5) scale(-1.11111,1.11111) translate(-572.138,-227.683)" opacity="0"><g transform="translate(572.138 227.683)"><path d="M29.186,-51.11C57.411,-34.993,67.227,0.958,51.108,29.184C34.99,57.411,-0.957,67.227,-29.183,51.108c-28.227-16.118-38.043-52.069-21.926-80.294c16.12-28.225,52.067-38.041,80.295-21.924Z" fill="#f4e57d" stroke-width="0"/></g><g transform="translate(572.138 227.682)"><path d="M24.147,-42.285C47.501,-28.95,55.621,0.793,42.286,24.147c-13.337,23.354-43.078,31.475-66.432,18.14-23.354-13.337-31.475-43.08-18.138-66.434c13.335-23.354,43.077-31.475,66.431-18.138Z" fill="#eab934" stroke-width="0"/></g><g transform="translate(570.802 230.025)"><path d="M42.222,24.108c-13.93,21.57-42.464,28.724-65.031,15.836-22.569-12.886-30.909-41.093-19.41-64.055c13.928-21.57,42.461-28.72,65.028-15.834C45.378,-27.06,53.719,1.151,42.222,24.108Z" fill="#f0d137" stroke-width="0"/></g><g transform="translate(570.336 230.304)"><path d="M10.933,14.261c-1.478,2.589-3.686,4.297-6.618,5.125-2.933.825-6.316.499-10.142-.983c0,0-2.968,5.195-2.968,5.195s-5.615-3.207-5.615-3.207s2.86-5.008,2.86-5.008c-2.251-1.491-4.239-3.154-5.964-4.988-1.724-1.833-3.008-3.608-3.845-5.327c0,0,6.942-5.098,6.942-5.098.914,1.804,2.169,3.556,3.766,5.253c1.594,1.697,3.33,3.081,5.2,4.148c3.558,2.032,5.843,2.16,6.858.379.536-.935.424-1.916-.331-2.949s-2.114-2.438-4.075-4.219c-2.163-1.939-3.896-3.683-5.203-5.237-1.304-1.553-2.169-3.339-2.586-5.357-.42-2.016.021-4.167,1.321-6.443c1.532-2.682,3.813-4.431,6.842-5.245c3.031-.814,6.495-.397,10.392,1.25c0,0,2.94-5.148,2.94-5.148s5.617,3.209,5.617,3.209-2.885,5.052-2.885,5.052c1.688,1.172,3.218,2.46,4.589,3.863c1.369,1.403,2.48,2.844,3.331,4.322c0,0-6.782,5.25-6.782,5.25-2.157-3.467-4.702-6.037-7.635-7.711-1.841-1.051-3.337-1.546-4.491-1.48s-1.979.534-2.481,1.409c-.497.874-.372,1.814.376,2.819.751,1.008,2.096,2.377,4.046,4.11C6.584,-0.8,8.326,0.951,9.617,2.493c1.291,1.546,2.158,3.323,2.6,5.334.445,2.012.016,4.156-1.284,6.434Z" fill="#eab934" stroke-width="0"/></g><g transform="translate(571.674 227.962)"><path d="M10.933,14.261c-1.478,2.591-3.685,4.299-6.618,5.127-2.933.825-6.316.499-10.145-.985c0,0-2.965,5.195-2.965,5.195s-5.615-3.207-5.615-3.207s2.86-5.008,2.86-5.008c-2.251-1.489-4.239-3.154-5.966-4.985-1.722-1.834-3.006-3.611-3.843-5.33c0,0,6.942-5.098,6.942-5.098.914,1.807,2.169,3.558,3.766,5.255c1.594,1.697,3.33,3.081,5.2,4.149c3.558,2.032,5.843,2.157,6.858.378.536-.935.424-1.918-.331-2.951-.755-1.031-2.114-2.438-4.075-4.219-2.163-1.939-3.896-3.681-5.203-5.234-1.304-1.553-2.169-3.339-2.588-5.358-.418-2.016.02-4.166,1.323-6.445c1.532-2.682,3.813-4.429,6.842-5.245c3.031-.812,6.495-.395,10.395,1.25c0,0,2.937-5.148,2.937-5.148s5.617,3.209,5.617,3.209-2.887,5.052-2.887,5.052c1.69,1.172,3.22,2.46,4.591,3.863c1.369,1.403,2.48,2.844,3.331,4.324c0,0-6.781,5.248-6.781,5.248-2.158-3.464-4.703-6.035-7.636-7.711-1.841-1.051-3.337-1.544-4.491-1.478-1.154.064-1.982.534-2.481,1.407-.497.874-.372,1.814.376,2.819.751,1.008,2.098,2.379,4.046,4.11C6.584,-0.8,8.326,0.951,9.617,2.495s2.158,3.321,2.6,5.335c.445,2.011.016,4.155-1.284,6.431Z" fill="#f4e57d" stroke-width="0"/></g></g></g></g></g></g><g id="egI9e4XDyQ3190_to" style="offset-path:path('M-297.871,446.057C-184.204,407.89,189.258,189.614,384.129,217.057Q384.243,217.102,384.129,217.057Q384.379,216.557,408.129,235.057Q408.218,234.903,408.129,235.057C83.566,794.558,-136.871,578.39,-245.871,647.057');offset-rotate:0deg"><g id="egI9e4XDyQ3190_tr" transform="rotate(30)"><g id="egI9e4XDyQ3190" transform="scale(-0.9,0.9) translate(-760.129,-185.057)" opacity="0"><g transform="translate(758.237 184.753)"><path d="M215.404,30.696c-3.215-1.663-6.24-3.505-8.746-5.7-8.154-7.141-11.261-18.809-19.182-26.399-6.346-6.045-14.403-9.974-21.313-15.295-30.746-23.681-64.035-44.062-99.121-60.65-16.735-7.912-34.371-15.077-52.876-15.57-23.92-.636-45.983,9.922-66.058,21.877-16.635,9.906-31.527,21.749-49.553,28.712-18.054,6.974-35.608,15.212-52.532,24.599-19.811,11.007-43.147,22.934-56.833,41.348-2.347,3.159-4.594,6.747-4.461,10.68.825,24.442,50.442,10.143,62.703,5.727c22.26-8.018,44.606-21.09,69.093-18.836c16.295,1.5,32.077,8.838,47.562,15.631c6.291,2.76,12.534,5.43,18.742,7.581c23.594,8.177,49.237,10.56,73.888,6.417c13.656-2.296,36.08-6.995,48.43,1.944c10.11,7.317,14.312,26.146,18.483,40.792c31.82-17.652,62.3-38.552,91.292-62.447.163-.134.319-.276.482-.411Z" fill="#f6f6f6" stroke-width="0"/></g><g transform="translate(837.119 225.817)"><path d="M123.349,-36.653c-3.189-2.578-7.131-5.72-10.148-8.485-17.669,11.901-65.44-7.353-107.977,23.685-40.036,29.213-124.123,11.605-150.419,5.104c10.295,3.122,20.409,7.723,30.399,12.106c6.291,2.759,12.534,5.429,18.742,7.581c23.594,8.177,49.237,10.559,73.888,6.415c13.655-2.295,36.08-6.993,48.43,1.945c10.11,7.317,14.312,26.146,18.483,40.792c31.82-17.652,62.3-38.551,91.292-62.446c3.742-3.083,5.588-4.67,9.156-7.922-1.65-1.015-16.519-14.47-21.846-18.775Z" fill="#eaeaea" stroke-width="0"/></g><g transform="translate(758.237 196.39)"><path d="M-53.163,-81.916c-16.127,9.745-30.716,21.164-48.282,27.949-18.054,6.974-35.608,15.212-52.533,24.6-19.81,11.006-43.146,22.933-56.832,41.348-2.347,3.158-4.594,6.746-4.461,10.679.825,24.443,50.441,10.144,62.703,5.727c22.259-8.018,44.606-21.09,69.093-18.836c16.295,1.5,32.077,8.839,47.562,15.632c6.291,2.759,12.534,5.429,18.742,7.58C6.423,40.94,32.066,43.324,56.717,39.18c13.656-2.295,36.08-6.995,48.43,1.944c10.11,7.317,14.312,26.147,18.483,40.792c31.82-17.651,62.3-38.551,91.292-62.447.163-.134.319-.276.482-.411" paint-order="stroke fill markers" fill="none" fill-rule="evenodd" stroke="#545454" stroke-width="4" stroke-linecap="round" stroke-linejoin="round"/></g><g transform="translate(559.112 214.323)"><path d="M2.094,16.33c-1.547.485-3.092.841-4.588.937-3.541.226-7.856.888-11.203-.614-2.387-1.072-4.127-3.225-5.402-5.511-1.218-2.184-2.108-4.62-2.069-7.12.056-3.637,2.09-7.018,4.757-9.491c2.757-2.558,6.128-4.078,9.291-6.014c3.313-2.027,6.6-3.95,10.191-5.463c1.492-.628,3.065-1.209,4.682-1.12c2.754.151,6.548,4.311,8.081,6.455c1.655,2.315,2.68,5.016,3.542,7.728.889,2.797,1.83,6.066,1.206,9.02-.527,2.496-3.511,4.598-5.605,5.918-1.443.909-3.049,1.523-4.649,2.116-2.56.948-5.401,2.27-8.234,3.159Z" fill="#fff" stroke="#545454" stroke-width="4" stroke-miterlimit="10"/></g></g></g></g></svg>